# xmcd CD database file
#
# Track frame offsets:
#	150
#	14404
#	29285
#	42647
#	62032
#	76887
#	93374
#	102676
#	122805
#	136849
#	157511
#	171575
#	195202
#
# Disc length: 2872 seconds
#
# Revision: 0
# Processed by: cddbd v1.5.2PL0 Copyright (c) Steve Scherf et al.
# Submitted via: CDex 1.70beta2
#
DISCID=a40b360d
DTITLE=Various Artist - Big Bang Club
DYEAR=2010
DGENRE=Jazz
TTITLE0=Mousse T feat. Emma Lanford - Horny Jazz
TTITLE1=Jimmy Smith - Stay Loose (Lyrics Born Remix)
TTITLE2=Parov Stelar - Ragtime Cat feat. Lilja Bloom
TTITLE3=Lyre Le Temps - Hold The Night
TTITLE4=Jazzbit - I Love You Baby
TTITLE5=Yolanda Be Cool vs DCUP - We No Speak Americano ﾠ(Morris Corti vs Mattara Remix)
TTITLE6=Mo Horizons - Hit The Road Jack (Pe Na Estrada)
TTITLE7=Boogalox - Chez Les Ye-Ye
TTITLE8=Louie Austen - Myamy
TTITLE9=Brenda Boykin - Listen To The Beat
TTITLE10=G-Swing feat. Le Major Melon - Ring Dem Bells
TTITLE11=Amy Winehouse - You Know I'm No Good (Skeewiff Remix)
TTITLE12=Zeebee - Be My Sailor
EXTD=YEAR: 2010
EXTT0=
EXTT1=
EXTT2=
EXTT3=
EXTT4=
EXTT5=
EXTT6=
EXTT7=
EXTT8=
EXTT9=
EXTT10=
EXTT11=
EXTT12=
PLAYORDER=
